<svg width="160" height="27" viewBox="0 0 160 27" fill="none" xmlns="http://www.w3.org/2000/svg">
<path d="M13.5004 0.00305689C13.3576 0.0017101 13.2177 0.00305934 13.0808 0.00709974C9.63187 0.0677486 6.34094 1.47929 3.90149 3.94428C-1.3005 9.20206 -1.3005 17.7861 3.90149 23.0443C5.49794 24.6531 7.47086 25.8278 9.63688 26.4592C11.8029 27.0907 14.0917 27.1585 16.2906 26.6562C16.5323 26.6139 16.7705 26.5534 17.0032 26.4751C19.1654 25.8607 21.1376 24.701 22.7348 23.1049L38.949 6.71954C40.0834 5.5681 41.489 4.72732 43.0336 4.27633C43.089 4.26645 43.1438 4.25421 43.1981 4.2396C43.6547 4.11598 44.1334 4.10018 44.597 4.19342C45.0606 4.28665 45.4968 4.48642 45.8718 4.77728C46.2469 5.06813 46.5507 5.44228 46.7598 5.87079C46.9689 6.29929 47.0777 6.77067 47.0778 7.24847V13.6052C47.0778 14.1257 47.2824 14.6249 47.6465 14.993C48.0106 15.3611 48.5045 15.5678 49.0195 15.5678C49.5345 15.5678 50.0284 15.3611 50.3925 14.993C50.7566 14.6249 50.9612 14.1257 50.9612 13.6052V5.55542C51.4607 5.89831 51.9271 6.28795 52.3543 6.71917C53.6674 8.04904 54.5651 9.73948 54.936 11.5806C55.3068 13.4217 55.1344 15.3323 54.4403 17.0752C53.7461 18.8182 52.5607 20.3166 51.0312 21.3845C49.5018 22.4524 47.6957 23.0427 45.8372 23.082C45.781 23.077 45.7245 23.0744 45.6677 23.0744C45.2629 23.0745 44.8622 22.9939 44.4883 22.8374C44.1144 22.6809 43.7746 22.4514 43.4884 22.1622C43.2023 21.8729 42.9753 21.5295 42.8204 21.1516C42.6656 20.7737 42.5859 20.3686 42.5859 19.9595C42.5858 19.8873 42.5817 19.8152 42.5738 19.7434V13.4937C42.5738 12.9733 42.3692 12.4741 42.0052 12.1061C41.6411 11.7381 41.1473 11.5314 40.6324 11.5314C40.1175 11.5314 39.6237 11.7381 39.2596 12.1061C38.8955 12.4741 38.6909 12.9733 38.6909 13.4937V20.0073L35.8116 17.098C35.4473 16.7306 34.9537 16.5245 34.4392 16.5248C33.9246 16.5251 33.4313 16.7318 33.0674 17.0996C32.7036 17.4673 32.4991 17.966 32.4988 18.4861C32.4985 19.0061 32.7024 19.5051 33.0658 19.8732L36.2024 23.0443C36.2288 23.071 36.2559 23.0969 36.2838 23.1221C37.2719 24.1053 38.4064 24.9258 39.6461 25.5537C39.7282 25.6025 39.8138 25.6452 39.9022 25.6812C41.5302 26.4609 43.2971 26.9007 45.0972 26.9743C45.2862 26.9901 45.476 27 45.6666 27C45.7566 26.9999 45.8464 26.9934 45.9355 26.9807C49.3787 26.9158 52.663 25.5047 55.0984 23.0438C60.3003 17.7861 60.3008 9.20206 55.0984 3.94379C53.5028 2.336 51.531 1.16179 49.3663 0.5302C47.2016 -0.101392 44.9141 -0.169889 42.7162 0.331065C42.5412 0.364123 42.3663 0.401341 42.1931 0.448357C42.126 0.466607 42.06 0.488473 41.9952 0.51386C39.8399 1.127 37.8734 2.28199 36.2792 3.87106L20.052 20.2686C18.919 21.4186 17.5154 22.2587 15.9731 22.7101C15.9158 22.7201 15.859 22.7327 15.8029 22.7479C15.3463 22.8716 14.8677 22.8875 14.4041 22.7943C13.9405 22.7012 13.5043 22.5014 13.1292 22.2106C12.7542 21.9198 12.4504 21.5456 12.2413 21.1171C12.0323 20.6886 11.9236 20.2172 11.9236 19.7394V13.4942C11.9236 12.9737 11.719 12.4745 11.3549 12.1065C10.9908 11.7384 10.4969 11.5317 9.98194 11.5317C9.46698 11.5317 8.97311 11.7384 8.60897 12.1065C8.24484 12.4745 8.04027 12.9737 8.04027 13.4942V21.4323C7.54086 21.0896 7.07445 20.7002 6.64723 20.2692C5.33313 18.9383 4.43508 17.2463 4.06476 15.4036C3.69444 13.561 3.86819 11.6489 4.5644 9.90528C5.2606 8.16162 6.44855 6.66329 7.98052 5.59659C9.51249 4.52989 11.3209 3.94189 13.1808 3.90571C13.2369 3.91077 13.293 3.9133 13.3493 3.9133C14.1509 3.913 14.9209 4.22885 15.4955 4.79366C16.0702 5.35846 16.4041 6.12763 16.4261 6.93748V13.6051C16.4261 14.1256 16.6307 14.6248 16.9948 14.9928C17.359 15.3609 17.8528 15.5676 18.3678 15.5676C18.8828 15.5676 19.3766 15.3609 19.7408 14.9928C20.1049 14.6248 20.3095 14.1256 20.3095 13.6051L20.3125 6.98339L23.1894 9.88991C23.3697 10.0721 23.5838 10.2167 23.8193 10.3153C24.0549 10.4139 24.3074 10.4647 24.5623 10.4647C24.8173 10.4647 25.0698 10.4139 25.3053 10.3153C25.5409 10.2166 25.7549 10.0721 25.9352 9.88985C26.1155 9.70761 26.2585 9.49127 26.3561 9.25317C26.4537 9.01507 26.5039 8.75988 26.5039 8.50217C26.5039 8.24446 26.4536 7.98927 26.3561 7.75118C26.2585 7.51308 26.1155 7.29675 25.9352 7.11452C24.8727 6.04847 23.7288 4.87394 22.7169 3.86616C21.7297 2.88388 20.5964 2.06398 19.3581 1.43629C19.2744 1.38633 19.1872 1.34278 19.0971 1.30602C17.4796 0.531586 15.725 0.0925032 13.9368 0.0146885C13.7895 0.00856667 13.6441 0.00452553 13.5008 0.00244411L13.5004 0.00305689Z" fill="url(#paint0_linear_101_255)"/>
<path d="M74.8301 13.2211L80.2101 20.7316H76.5701L73.0701 15.6194L69.5501 20.7316H65.9301L71.3101 13.2211L66.0701 5.8999H69.6901L73.0701 10.8228L76.4701 5.8999H80.0901L74.8301 13.2211Z" fill="#fff"/>
<path d="M90.5461 5.8999H93.4661V20.7316H91.1461L84.1261 11.2856V20.7316H81.2261V5.8999H83.5261L90.5461 15.3038V5.8999Z" fill="#fff"/>
<path d="M107.025 20.7316L105.685 17.4497H99.1252L97.7852 20.7316H94.6452L101.125 5.8999H103.625L110.105 20.7316H107.025ZM100.145 14.9672H104.665L102.405 9.41323L100.145 14.9672Z" fill="#fff"/>
<path d="M116.871 20.7316V5.8999H119.991V18.0598H126.291V20.7316H116.871Z" fill="#fff"/>
<path d="M132.26 10.1496C133.727 10.1496 134.807 10.5142 135.5 11.2435C136.207 11.9728 136.56 13.1019 136.56 14.6306V20.7316H133.7V19.1958C133.5 19.7288 133.167 20.1496 132.7 20.4581C132.234 20.7526 131.687 20.8999 131.06 20.8999C130.394 20.8999 129.787 20.7596 129.24 20.4791C128.707 20.1986 128.28 19.8059 127.96 19.301C127.654 18.7961 127.5 18.2351 127.5 17.618C127.5 16.8606 127.68 16.2646 128.04 15.8298C128.414 15.395 129.007 15.0794 129.82 14.8831C130.634 14.6867 131.747 14.5885 133.16 14.5885H133.68V14.2099C133.68 13.5927 133.554 13.158 133.3 12.9055C133.047 12.6531 132.607 12.5268 131.98 12.5268C131.5 12.5268 130.967 12.618 130.38 12.8003C129.794 12.9827 129.234 13.2351 128.7 13.5577L127.9 11.4329C128.46 11.0682 129.147 10.7667 129.96 10.5282C130.787 10.2758 131.554 10.1496 132.26 10.1496ZM131.72 18.712C132.307 18.712 132.78 18.5086 133.14 18.1019C133.5 17.6811 133.68 17.1411 133.68 16.4819V16.1243H133.34C132.26 16.1243 131.5 16.2155 131.06 16.3978C130.634 16.5801 130.42 16.9097 130.42 17.3866C130.42 17.7653 130.54 18.0808 130.78 18.3333C131.034 18.5857 131.347 18.712 131.72 18.712Z" fill="#fff"/>
<path d="M144.898 10.1496C145.752 10.1496 146.505 10.3669 147.158 10.8017C147.812 11.2365 148.318 11.8606 148.678 12.6741C149.052 13.4735 149.238 14.4062 149.238 15.4721C149.238 16.5381 149.052 17.4848 148.678 18.3122C148.318 19.1257 147.805 19.7639 147.138 20.2267C146.485 20.6755 145.738 20.8999 144.898 20.8999C144.218 20.8999 143.605 20.7526 143.058 20.4581C142.512 20.1496 142.092 19.7288 141.798 19.1958V20.7316H138.818V5.8999H141.838V11.7905C142.132 11.2716 142.545 10.8719 143.078 10.5913C143.625 10.2968 144.232 10.1496 144.898 10.1496ZM144.018 18.4805C144.725 18.4805 145.272 18.2211 145.658 17.7021C146.045 17.1692 146.238 16.4258 146.238 15.4721C146.238 14.5324 146.045 13.8172 145.658 13.3263C145.272 12.8214 144.725 12.5689 144.018 12.5689C143.312 12.5689 142.765 12.8284 142.378 13.3473C141.992 13.8522 141.798 14.5745 141.798 15.5142C141.798 16.4679 141.992 17.2042 142.378 17.7232C142.765 18.2281 143.312 18.4805 144.018 18.4805Z" fill="#fff"/>
<path d="M154.864 20.8999C153.957 20.8999 153.124 20.7947 152.364 20.5843C151.617 20.3599 150.97 20.0444 150.424 19.6376L151.224 17.4497C151.757 17.8284 152.344 18.1229 152.984 18.3333C153.624 18.5437 154.27 18.6489 154.924 18.6489C155.39 18.6489 155.75 18.5717 156.004 18.4174C156.27 18.2491 156.404 18.0247 156.404 17.7442C156.404 17.4918 156.31 17.2954 156.124 17.1552C155.95 17.0149 155.617 16.8887 155.124 16.7765L153.524 16.3978C152.577 16.1734 151.877 15.8298 151.424 15.3669C150.984 14.8901 150.764 14.2449 150.764 13.4315C150.764 12.7863 150.937 12.2183 151.284 11.7274C151.644 11.2365 152.144 10.8508 152.784 10.5703C153.437 10.2898 154.177 10.1496 155.004 10.1496C155.71 10.1496 156.397 10.2618 157.064 10.4862C157.73 10.7106 158.33 11.0261 158.864 11.4329L158.064 13.5366C157.024 12.7793 155.997 12.4006 154.984 12.4006C154.517 12.4006 154.15 12.4848 153.884 12.6531C153.617 12.8214 153.484 13.0598 153.484 13.3683C153.484 13.5927 153.564 13.7681 153.724 13.8943C153.884 14.0205 154.164 14.1397 154.564 14.2519L156.224 14.6517C157.224 14.8901 157.95 15.2547 158.404 15.7456C158.87 16.2225 159.104 16.8747 159.104 17.7021C159.104 18.6979 158.724 19.4834 157.964 20.0584C157.217 20.6194 156.184 20.8999 154.864 20.8999Z" fill="#fff"/>
<defs>
<linearGradient id="paint0_linear_101_255" x1="-1.33247" y1="14.6924" x2="61.5361" y2="15.0519" gradientUnits="userSpaceOnUse">
<stop stop-color="#4580E9"/>
<stop offset="1" stop-color="#36DF79"/>
</linearGradient>
</defs>
</svg>
